/* XPM */
static char * maximize_toggled_pressed_xpm[] = {
"45 32 3 1",
" 	c #1BA1E2",
".	c #B3B3B3",
"+	c #4C4C4C",
"                                             ",
".............................................",
".............................................",
".............................................",
".............................................",
".............................................",
".............................................",
".............................................",
".............................................",
".............................................",
"....................++++++++.................",
"....................+......+.................",
"..................++++++++.+.................",
"..................+......+.+.................",
"..................+......+.+.................",
"..................+......+.+.................",
"..................+......+.+.................",
"..................+......+++.................",
"..................+......+...................",
"..................++++++++...................",
".............................................",
".............................................",
".............................................",
".............................................",
".............................................",
".............................................",
".............................................",
".............................................",
".............................................",
".............................................",
".............................................",
"............................................."};
