/* XPM */
static char * hide_prelight_xpm[] = {
"45 32 3 1",
" 	c #1BA1E2",
".	c #505050",
"+	c #FFFFFF",
"                                             ",
".............................................",
".............................................",
".............................................",
".............................................",
".............................................",
".............................................",
".............................................",
".............................................",
".............................................",
".............................................",
".............................................",
".............................................",
".............................................",
".............................................",
"..................++++++++++.................",
".............................................",
".............................................",
".............................................",
".............................................",
".............................................",
".............................................",
".............................................",
".............................................",
".............................................",
".............................................",
".............................................",
".............................................",
".............................................",
".............................................",
".............................................",
"............................................."};
